<svg xmlns="http://www.w3.org/2000/svg" version="1.1" xmlns:xlink="http://www.w3.org/1999/xlink" xmlns:svgjs="http://svgjs.com/svgjs" width="2000" height="1000" preserveAspectRatio="none" viewBox="0 0 2000 1000">
    <g mask="url(&quot;#SvgjsMask1053&quot;)" fill="none">
        <rect width="2000" height="1000" x="0" y="0" fill="url(#SvgjsLinearGradient1054)"></rect>
        <path d="M1047.295,683.677C1126.799,685.621,1210.19,655.596,1246.84,585.016C1281.546,518.181,1243.59,443.437,1205.9,378.238C1168.261,313.126,1122.494,241.002,1047.295,239.823C970.836,238.625,916.478,306.009,879.838,373.127C845.062,436.831,829.519,511.772,863.966,575.654C900.048,642.568,971.296,681.819,1047.295,683.677" fill="rgba(28, 83, 142, 0.4)" class="triangle-float2"></path>
        <path d="M674.1694218058685 929.9483496799262L690.7985627764294 692.1405545241176 436.36162665006 913.3192087093653z" fill="rgba(28, 83, 142, 0.4)" class="triangle-float2"></path>
        <path d="M1973.9045110891661-91.459112508544L1751.3882110817763 37.010733199802075 2102.374356797512 131.0571874988458z" fill="rgba(28, 83, 142, 0.4)" class="triangle-float2"></path>
        <path d="M1891.6083777572376 794.016928911581L2155.665268055249 771.1685014749207 2026.1059974346829 579.0889837438907z" fill="rgba(28, 83, 142, 0.4)" class="triangle-float1"></path>
        <path d="M1997.292,740.973C2092.495,746.228,2183.542,691.049,2227.908,606.651C2269.69,527.168,2241.448,436.172,2199.159,356.957C2153.395,271.233,2094.283,180.646,1997.292,174.661C1892.458,168.192,1791.453,233.848,1747.109,329.061C1707.697,413.684,1758.462,503.628,1806.922,583.415C1852.753,658.872,1909.141,736.108,1997.292,740.973" fill="rgba(28, 83, 142, 0.4)" class="triangle-float2"></path>
        <path d="M684.1086987506178 933.2859207326792L531.350573482667 822.0780629204245 511.2211315417723 986.0192114888723z" fill="rgba(28, 83, 142, 0.4)" class="triangle-float3"></path>
        <path d="M217.2122991495154 193.12736521121008L37.41483463905709 392.81267943108276 237.10014885892974 572.6101439415411 416.89761336938807 372.9248297216684z" fill="rgba(28, 83, 142, 0.4)" class="triangle-float3"></path>
        <path d="M1729.74 696.83 a200.69 200.69 0 1 0 401.38 0 a200.69 200.69 0 1 0 -401.38 0z" fill="rgba(28, 83, 142, 0.4)" class="triangle-float3"></path>
        <path d="M1798.94 102.49 a175.53 175.53 0 1 0 351.06 0 a175.53 175.53 0 1 0 -351.06 0z" fill="rgba(28, 83, 142, 0.4)" class="triangle-float3"></path>
        <path d="M149.333,318.326C182.872,318.179,215.443,304.233,232.93,275.614C251.163,245.774,252.47,208.18,235.222,177.76C217.746,146.938,184.753,129.102,149.333,128.172C112.111,127.195,73.769,140.727,55.262,173.037C36.842,205.193,44.311,245.247,64.452,276.354C82.838,304.751,115.503,318.475,149.333,318.326" fill="rgba(28, 83, 142, 0.4)" class="triangle-float3"></path>
        <path d="M-16.011899284065265 888.1871558213251L-22.225147649959744 1006.7429971657616 158.7152385496422 956.784949042385z" fill="rgba(28, 83, 142, 0.4)" class="triangle-float2"></path>
        <path d="M1217.2089560048828 520.108506904945L1310.3002688400634 563.5176989876925 1328.8684005465943 402.17613369354785z" fill="rgba(28, 83, 142, 0.4)" class="triangle-float2"></path>
        <path d="M575.037772330381 782.6520180368753L497.40446888526213 642.5978312224033 357.3502820707901 720.2311346675223 434.983585515909 860.2853214819943z" fill="rgba(28, 83, 142, 0.4)" class="triangle-float2"></path>
        <path d="M1276.492,680.995C1333.763,683.411,1395.106,670.881,1425.912,622.541C1458.658,571.157,1454.77,503.655,1422.405,452.03C1391.87,403.323,1333.979,384.369,1276.492,384.203C1218.656,384.036,1157.741,400.93,1129.115,451.185C1100.707,501.057,1116.438,562.478,1147.422,610.792C1175.759,654.978,1224.047,678.782,1276.492,680.995" fill="rgba(28, 83, 142, 0.4)" class="triangle-float3"></path>
        <path d="M1604.4526679102357-89.56069787640547L1671.0549536220758 159.00241630040034 1919.6180677988816 92.4001305885603 1853.0157820870415-156.1629835882455z" fill="rgba(28, 83, 142, 0.4)" class="triangle-float1"></path>
        <path d="M172.42 61.58 a254.49 254.49 0 1 0 508.98 0 a254.49 254.49 0 1 0 -508.98 0z" fill="rgba(28, 83, 142, 0.4)" class="triangle-float1"></path>
        <path d="M993.24 973.28 a256.55 256.55 0 1 0 513.1 0 a256.55 256.55 0 1 0 -513.1 0z" fill="rgba(28, 83, 142, 0.4)" class="triangle-float1"></path>
        <path d="M112.703,385.273C157.209,382.65,192.009,350.224,212.838,310.806C232.181,274.2,234.305,230.59,213.285,194.921C192.575,159.777,153.494,140.58,112.703,140.884C72.458,141.184,37.116,162.987,14.683,196.401C-11.196,234.948,-31.586,282.742,-10.2,323.951C12.404,367.506,63.717,388.16,112.703,385.273" fill="rgba(28, 83, 142, 0.4)" class="triangle-float1"></path>
        <path d="M426.444,986.323C481.924,985.582,542.951,975.245,569.857,926.72C596.244,879.13,571.205,823.148,542.581,776.869C515.861,733.67,477.179,697.314,426.444,694.854C371.452,692.187,318.591,718.138,289.01,764.573C257.039,814.761,244.891,880.062,276.239,930.642C306.389,979.289,369.217,987.087,426.444,986.323" fill="rgba(28, 83, 142, 0.4)" class="triangle-float3"></path>
        <path d="M729.515,1113.283C788.009,1108.563,835.427,1070.233,864.004,1018.977C891.739,969.231,895.363,911.136,870.89,859.707C842.087,799.179,796.53,734.822,729.515,736.351C663.802,737.85,631.817,809.025,598.89,865.913C565.865,922.971,520.544,985.909,551.328,1044.206C583.21,1104.581,661.46,1118.774,729.515,1113.283" fill="rgba(28, 83, 142, 0.4)" class="triangle-float2"></path>
    </g>
    <defs>
        <mask id="SvgjsMask1053">
            <rect width="2000" height="1000" fill="#ffffff"></rect>
        </mask>
        <linearGradient x1="87.5%" y1="-25%" x2="12.5%" y2="125%" gradientUnits="userSpaceOnUse" id="SvgjsLinearGradient1054">
            <stop stop-color="#0e2a47" offset="0"></stop>
            <stop stop-color="#00459e" offset="1"></stop>
        </linearGradient>
        <style>
            @keyframes float1 {
                0%{transform: translate(0, 0)}
                50%{transform: translate(-10px, 0)}
                100%{transform: translate(0, 0)}
            }

            .triangle-float1 {
                animation: float1 5s infinite;
            }

            @keyframes float2 {
                0%{transform: translate(0, 0)}
                50%{transform: translate(-5px, -5px)}
                100%{transform: translate(0, 0)}
            }

            .triangle-float2 {
                animation: float2 4s infinite;
            }

            @keyframes float3 {
                0%{transform: translate(0, 0)}
                50%{transform: translate(0, -10px)}
                100%{transform: translate(0, 0)}
            }

            .triangle-float3 {
                animation: float3 6s infinite;
            }
        </style>
    </defs>
</svg>